<?xml version="1.0" encoding="UTF-8"?>
<svg width="16px" height="15px" viewBox="0 0 16 15" version="1.1" xmlns="http://www.w3.org/2000/svg" xmlns:xlink="http://www.w3.org/1999/xlink">
    <!-- Generator: Sketch 54.1 (76490) - https://sketchapp.com -->
    <title>Group 8</title>
    <desc>Created with Sketch.</desc>
    <g id="Page-1" stroke="none" stroke-width="1" fill="none" fill-rule="evenodd">
        <g id="PRODUCT-DETAILS-2-Hover" transform="translate(-947.000000, -49.000000)" stroke="#3D3D3D">
            <g id="Group-8" transform="translate(947.500300, 49.500000)">
                <g id="Group-5">
                    <path d="M11.481,4.0163 L2.518,4.0163 L0,4.0163 L0,6.5343 L0,9.1833 L0,10.9693 C0,12.3593 1.127,13.4873 2.518,13.4873 L11.481,13.4873 C12.873,13.4873 14,12.3593 14,10.9693 L14,9.1833 L14,6.5343 L14,4.0163 L11.481,4.0163 Z" id="Stroke-1"></path>
                    <path d="M10.2115,2.048 C10.2115,0.917 9.2945,-1.89182003e-13 8.1635,-1.89182003e-13 L5.8365,-1.89182003e-13 C4.7055,-1.89182003e-13 3.7885,0.917 3.7885,2.048 L3.7885,4.016 L10.2115,4.016 L10.2115,2.048 Z" id="Stroke-3"></path>
                </g>
            </g>
        </g>
    </g>
</svg>