<?xml version="1.0" encoding="UTF-8"?>
<svg width="41px" height="44px" viewBox="0 0 41 44" version="1.1" xmlns="http://www.w3.org/2000/svg" xmlns:xlink="http://www.w3.org/1999/xlink">
    <!-- Generator: Sketch 54.1 (76490) - https://sketchapp.com -->
    <title>Group 8</title>
    <desc>Created with Sketch.</desc>
    <defs>
        <polygon id="path-1" points="4.28679435e-05 0.0808910758 39.7919971 0.0808910758 39.7919971 42.9755501 4.28679435e-05 42.9755501"></polygon>
    </defs>
    <g id="Page-1" stroke="none" stroke-width="1" fill="none" fill-rule="evenodd">
        <g id="HOME-1-FINAL" transform="translate(-932.000000, -2097.000000)">
            <g id="Group-14" transform="translate(1.000000, 1598.000000)">
                <g id="Group-4" transform="translate(0.000000, 281.728606)">
                    <g id="Group-8" transform="translate(931.710937, 218.061125)">
                        <g id="Group-3" transform="translate(0.138428, 0.000000)">
                            <mask id="mask-2" fill="white">
                                <use xlink:href="#path-1"></use>
                            </mask>
                            <g id="Clip-2"></g>
                            <path d="M39.7919971,21.5282322 C39.7919971,33.3733104 30.8842528,42.9755732 19.8961272,42.9755732 C8.9077872,42.9755732 4.28679435e-05,33.3733104 4.28679435e-05,21.5282322 C4.28679435e-05,9.68315391 8.9077872,0.0808910758 19.8961272,0.0808910758 C30.8842528,0.0808910758 39.7919971,9.68315391 39.7919971,21.5282322" id="Fill-1" fill="#4C4A88" mask="url(#mask-2)"></path>
                        </g>
                        <path d="M20.8295384,33.4254279 L10.0885199,33.4254279 C10.0512247,33.4124299 10.0145995,33.3967842 9.97663432,33.3871561 C9.51033262,33.2665641 9.20192139,32.9608716 9.05519715,32.4691159 C9.00874564,32.3136219 8.99780273,32.1516289 8.99780273,31.9881918 C8.99802606,24.9943327 8.99802606,18.0002329 8.99869603,11.0061332 C8.99869603,10.9038345 9.00517245,10.8008137 9.01611535,10.6992372 C9.07194649,10.177875 9.42457599,9.73714828 9.89244096,9.59489296 C10.027999,9.55373279 10.1651203,9.55036295 10.3035815,9.55036295 C16.8172892,9.55060365 23.3309969,9.55060365 29.8447046,9.55060365 C29.893836,9.55060365 29.9434141,9.54867803 29.9920989,9.55252928 C30.056193,9.55758403 30.1209571,9.56239809 30.184158,9.57563674 C30.6783753,9.68010173 31.0736597,10.1400847 31.1306075,10.6730006 C31.1326174,10.6920161 31.1408804,10.7103095 31.1462402,10.7290843 L31.1462402,32.2317829 C31.1361906,32.2895516 31.1299375,32.3485238 31.1156448,32.4053296 C30.98299,32.930543 30.6698889,33.2574174 30.1792448,33.3869154 C30.1381531,33.3977471 30.0979547,33.4124299 30.0573096,33.4254279 L24.2807963,33.4254279 C24.2819129,33.3823421 24.2839229,33.339497 24.2839229,33.2964112 L24.2839229,24.3458795 C24.2839229,24.3160324 24.2830296,24.2861852 24.2843695,24.2563381 C24.2852628,24.231305 24.2886127,24.2057905 24.2919625,24.1716107 L27.167713,24.1716107 C27.3115341,22.9690598 27.4542385,21.7754148 27.5985061,20.571179 C27.5547345,20.5690127 27.5156527,20.5656428 27.4770176,20.5656428 C26.4528511,20.5651614 25.4284613,20.5654021 24.4042948,20.5651614 C24.3656597,20.5651614 24.3272478,20.5620323 24.2839229,20.5603474 C24.2839229,20.5083556 24.2836995,20.4688803 24.2839229,20.4294051 C24.2879427,19.6442327 24.2921859,18.8590603 24.2959824,18.073888 C24.297099,17.8507565 24.3261312,17.6324391 24.3888854,17.4198986 C24.4896048,17.0785821 24.6908202,16.8352316 24.9965516,16.6912914 C25.2812904,16.55722 25.5830019,16.5227995 25.8871699,16.5194296 C26.462454,16.5129307 27.0377381,16.517504 27.6127989,16.517504 L27.711285,16.517504 L27.711285,13.2916058 C27.6735432,13.2855882 27.6407145,13.2783671 27.6074391,13.2754787 C27.2557029,13.2451501 26.9046367,13.2092854 26.5529005,13.1876222 C26.2036209,13.1661996 25.8536713,13.1551273 25.5041683,13.1471841 C25.29201,13.1423701 25.080075,13.1522389 24.8681399,13.1558494 C24.6282894,13.15946 24.390672,13.1912327 24.1550646,13.2362441 C23.6206489,13.3383021 23.1166053,13.5277352 22.6538768,13.8372789 C22.2166073,14.1292513 21.8545982,14.5064325 21.5676261,14.965212 C21.3480981,15.3156752 21.1864111,15.6964669 21.0684957,16.0998847 C20.9260146,16.588752 20.8576773,17.0906173 20.8342282,17.600185 C20.8239553,17.8216315 20.8268585,18.0440408 20.8266352,18.2662095 C20.8259652,18.9885584 20.8264119,19.7113888 20.8264119,20.4339784 L20.8264119,20.5654021 L19.3915515,20.5654021 L17.9582544,20.5654021 C17.9374852,20.7192112 17.9437383,24.1027697 17.9654008,24.1800353 L20.8264119,24.1800353 L20.8264119,24.3160324 C20.8264119,27.3094117 20.8264119,30.3027911 20.8266352,33.2961705 C20.8266352,33.3392563 20.8286451,33.3823421 20.8295384,33.4254279" id="Fill-4" fill="#FEFEFE"></path>
                        <path d="M20.4735188,33.4254279 C20.4727084,33.3848476 20.470885,33.3442673 20.470885,33.3036871 C20.4706824,30.4843788 20.4706824,27.6650706 20.4706824,24.8457623 L20.4706824,24.7176738 L17.8752092,24.7176738 C17.8555573,24.6449013 17.8498845,21.4581036 17.8687261,21.3132389 L19.1689952,21.3132389 L20.4706824,21.3132389 L20.4706824,21.1894578 C20.4706824,20.5088882 20.4702772,19.8280919 20.470885,19.147749 C20.4710876,18.9384999 20.4684539,18.7290241 20.4777733,18.5204552 C20.499046,18.0405199 20.5610408,17.5678391 20.6902978,17.1074005 C20.7972692,16.7274422 20.9439496,16.3687943 21.1431027,16.0387112 C21.4034401,15.6066108 21.7318503,15.2513634 22.1285356,14.9763698 C22.5483171,14.6848266 23.0055791,14.5064095 23.4903943,14.4102864 C23.7041344,14.3678925 23.9196978,14.3379674 24.1372873,14.3345668 C24.3295521,14.3311662 24.5218168,14.3218713 24.7142842,14.3264054 C25.0313489,14.3338867 25.3488188,14.3443151 25.6656809,14.3644919 C25.9847715,14.3848954 26.3032544,14.4186745 26.622345,14.4472394 C26.652532,14.4499599 26.6823138,14.456761 26.7165527,14.4624287 L26.7165527,17.5007343 L26.6272074,17.5007343 C26.1055195,17.5007343 25.583629,17.4964269 25.0617385,17.502548 C24.785801,17.5057218 24.5120922,17.5381407 24.2537807,17.6644156 C23.9764251,17.7999854 23.793885,18.0291846 23.7025136,18.3506528 C23.6455838,18.5508337 23.6192461,18.7564555 23.6182331,18.9666114 C23.614789,19.7061244 23.6109396,20.4456374 23.6072929,21.1851503 C23.6070903,21.22233 23.6072929,21.2595097 23.6072929,21.3084781 C23.6465968,21.310065 23.6814435,21.3130122 23.7164928,21.3130122 C24.6456038,21.3132389 25.5749173,21.3130122 26.5040282,21.3134656 C26.5390776,21.3134656 26.5745321,21.3166395 26.6142411,21.3186798 C26.4833633,22.4528869 26.3539037,23.5771189 26.2234311,24.7097391 L23.6145864,24.7097391 C23.6115474,24.7419312 23.6085085,24.765962 23.6076981,24.7895394 C23.6064825,24.8176508 23.6072929,24.8457623 23.6072929,24.8738738 L23.6072929,33.3039138 C23.6072929,33.344494 23.6054695,33.3848476 23.6044565,33.4254279 L20.4735188,33.4254279 Z" id="Fill-6" fill="#4C4A88"></path>
                    </g>
                </g>
            </g>
        </g>
    </g>
</svg>