<?xml version="1.0" encoding="UTF-8"?>
<svg width="40px" height="44px" viewBox="0 0 40 44" version="1.1" xmlns="http://www.w3.org/2000/svg" xmlns:xlink="http://www.w3.org/1999/xlink">
    <!-- Generator: Sketch 54.1 (76490) - https://sketchapp.com -->
    <title>Group 10</title>
    <desc>Created with Sketch.</desc>
    <defs>
        <polygon id="path-1" points="0.000171471774 0.0808910758 39.7921257 0.0808910758 39.7921257 42.9755501 0.000171471774 42.9755501"></polygon>
    </defs>
    <g id="Page-1" stroke="none" stroke-width="1" fill="none" fill-rule="evenodd">
        <g id="HOME-1-FINAL" transform="translate(-988.000000, -2097.000000)">
            <g id="Group-14" transform="translate(1.000000, 1598.000000)">
                <g id="Group-4" transform="translate(0.000000, 281.728606)">
                    <g id="Group-10" transform="translate(986.343750, 218.061125)">
                        <g id="Group-3" transform="translate(0.831074, 0.000000)">
                            <mask id="mask-2" fill="white">
                                <use xlink:href="#path-1"></use>
                            </mask>
                            <g id="Clip-2"></g>
                            <path d="M19.8960414,42.9755732 C8.90770146,42.9755732 0.000171471774,33.3733104 0.000171471774,21.5282322 C0.000171471774,9.68315391 8.90770146,0.0808910758 19.8960414,0.0808910758 C30.8841671,0.0808910758 39.7921257,9.68315391 39.7921257,21.5282322 C39.7921257,33.3733104 30.8841671,42.9755732 19.8960414,42.9755732 Z" id="Fill-1" fill="#4C4A88" mask="url(#mask-2)"></path>
                        </g>
                        <path d="M20.749165,12.1695924 C20.749165,12.1845021 20.749165,12.1991714 20.7489419,12.2140811 C19.4675135,12.2140811 18.1856388,12.1998928 16.9044335,12.2186502 C16.0163811,12.2316361 15.13056,12.3004133 14.2871333,12.6495897 C13.3604796,13.0333952 12.7087206,13.7050548 12.3769281,14.7278146 C12.1216688,15.5146639 12.0703492,16.3363828 12.0522758,17.1523302 C12.0056419,19.2913964 11.974627,21.4319055 11.9875685,23.5714527 C11.9960474,24.9292006 11.9993943,26.2946439 12.2568849,27.6350773 C12.3798288,28.2737912 12.6386581,28.8468541 13.0657266,29.320599 C13.7522937,30.0829194 14.6356604,30.3873666 15.5748093,30.4941396 C16.361115,30.5838385 17.1567922,30.6114936 17.948453,30.612696 C20.3336993,30.6155818 22.7189456,30.5989887 25.104415,30.5744597 C25.7838421,30.5677263 26.4538977,30.4501318 27.0994092,30.2046021 C28.0827376,29.8304158 28.7737673,29.1412012 29.1178318,28.0612072 C29.3501088,27.3323135 29.3927264,26.5736003 29.4288733,25.8189752 C29.5469084,23.3593497 29.5464621,20.8975598 29.4813085,18.4364913 C29.4529712,17.3581807 29.4489549,16.2743391 29.2358669,15.2123811 C29.0022511,14.0474978 28.3942253,13.2017309 27.3671637,12.7246194 C26.6518129,12.3922765 25.8958527,12.2650628 25.1258354,12.2458244 C23.6672428,12.209512 22.2082039,12.1938808 20.749165,12.1695924 M31.8388869,20.7390837 L31.8388869,22.1754685 C31.8319699,22.2839248 31.821706,22.3921406 31.8188053,22.5005969 C31.790468,23.614739 31.7817659,24.729843 31.7302232,25.8427827 C31.6871593,26.7695912 31.631154,27.6983235 31.400662,28.6015649 C31.1199661,29.7024806 30.638008,30.6807517 29.8735689,31.4803465 C28.7240096,32.6829851 27.3049107,33.2336834 25.742117,33.3556066 C24.7436158,33.433522 23.7381977,33.4267885 22.7359034,33.4239028 C20.426744,33.4169289 18.1169152,33.4027406 15.8077558,33.3616186 C15.0245738,33.3474303 14.2654898,33.1297962 13.5436683,32.7964915 C11.328223,31.7739721 10.1927208,29.881638 9.89350516,27.3765617 C9.75851227,26.247029 9.70183757,25.1001816 9.69447432,23.9605487 C9.68041721,21.7183167 9.7036226,19.4748823 9.7571735,17.2333718 C9.77747821,16.3839978 9.89529019,15.5329404 10.0211348,14.6919832 C10.1483182,13.8402043 10.4778794,13.0608099 10.9455572,12.3593308 C11.9770814,10.8132873 13.4445992,10.0682815 15.1397083,9.80231101 C15.9661772,9.67245202 16.8067032,9.59525806 17.6414278,9.58732223 C20.1092318,9.56447667 22.5781513,9.48920654 25.0443934,9.65297317 C25.8797874,9.70852396 26.7089339,9.81144924 27.5144286,10.0827102 C30.064344,10.9412225 31.3221207,12.9549988 31.5883133,15.4187126 C31.7306695,16.7331742 31.7436109,18.0642289 31.807872,19.3883097 C31.8295155,19.8377661 31.8290692,20.2886654 31.8388869,20.7390837" id="Fill-4" fill="#FEFEFE"></path>
                        <path d="M20.7672681,18.2821876 C19.1159061,18.2783528 17.7919197,19.6967819 17.7876598,21.4738786 C17.7833998,23.2405988 19.1161191,24.7014363 20.7519324,24.6917365 C22.4712403,24.6811344 23.7355877,23.1814976 23.7315408,21.4901201 C23.7272809,19.7146025 22.4173522,18.2860224 20.7672681,18.2821876 M15.5969905,21.4596672 C15.5827197,19.0653915 17.0609156,16.9885027 19.0462562,16.2285333 C20.9694018,15.4924751 23.2011794,16.0843895 24.5862958,17.7482465 C25.6084662,18.9762885 26.0762065,20.4247193 25.8940945,22.0414307 C25.6291268,24.3984862 24.4141946,26.0312136 22.2812474,26.7950178 C19.8094228,27.6801825 17.0078795,26.2597232 16.0125467,23.6847602 C15.7173335,22.920956 15.5897486,22.2388107 15.5969905,21.4596672" id="Fill-6" fill="#FEFEFE"></path>
                        <path d="M24.4560841,15.9062728 C24.4589682,15.0168769 25.1073782,14.3235156 25.9351301,14.3251864 C26.7502966,14.3271356 27.411292,15.0438873 27.4091944,15.9235372 C27.4065725,16.7967825 26.7322051,17.5143696 25.9191362,17.508522 C25.0958416,17.5026743 24.4531999,16.7987317 24.4560841,15.9062728" id="Fill-8" fill="#FEFEFE"></path>
                    </g>
                </g>
            </g>
        </g>
    </g>
</svg>