<?xml version="1.0" encoding="UTF-8"?>
<svg width="121px" height="39px" viewBox="0 0 121 39" version="1.1" xmlns="http://www.w3.org/2000/svg" xmlns:xlink="http://www.w3.org/1999/xlink">
    <!-- Generator: Sketch 54.1 (76490) - https://sketchapp.com -->
    <title>Group 35</title>
    <desc>Created with Sketch.</desc>
    <g id="Page-1" stroke="none" stroke-width="1" fill="none" fill-rule="evenodd">
        <g id="HOME-1-FINAL" transform="translate(-92.000000, -71.000000)" fill="#3D3D3D">
            <g id="Group-6" transform="translate(1.000000, 71.000000)">
                <g id="Group-35" transform="translate(91.546875, 0.000000)">
                    <path d="M3.82860896,16.2852214 C5.13530144,16.2852214 6.18065542,15.2221583 6.18065542,13.8933295 L7.3828125,13.8933295 C7.3828125,12.5645007 6.33745852,11.5014376 5.03076604,11.5014376 L3.82860896,11.5014376 C2.52191648,11.5014376 1.4765625,12.5645007 1.4765625,13.8933295 C1.4765625,15.2221583 2.52191648,16.2852214 3.82860896,16.2852214" id="Fill-1"></path>
                    <path d="M48.4233398,16.2852214 C49.4121094,16.2852214 50.203125,15.2221583 50.203125,13.8933295 C50.203125,12.5645007 49.4121094,11.5014376 48.4233398,11.5014376 L47.5532227,11.5014376 C46.5644531,11.5014376 45.7734375,12.5645007 45.7734375,13.8933295 L46.6831055,13.8933295 C46.6435547,15.2221583 47.4345703,16.2852214 48.4233398,16.2852214" id="Fill-3"></path>
                    <path d="M36.1757812,0.339275446 C34.9453125,0.339275446 33.9609375,1.46819197 33.9609375,2.87933763 C33.9609375,4.29048329 34.9453125,5.41939982 36.1757812,5.41939982 L36.1757812,6.71765382 C37.40625,6.71765382 38.390625,5.5887373 38.390625,4.17759164 L38.390625,2.87933763 C38.390625,1.46819197 37.40625,0.339275446 36.1757812,0.339275446" id="Fill-5"></path>
                    <path d="M78.858891,11.5014376 L77.656734,11.5014376 C76.3500415,11.5014376 75.3046875,12.5645007 75.3046875,13.8933295 L76.5068446,13.8933295 C76.5068446,15.2221583 77.5521986,16.2852214 78.858891,16.2852214 C80.1655835,16.2852214 81.2109375,15.2221583 81.2109375,13.8933295 C81.2109375,12.5645007 80.1655835,11.5014376 78.858891,11.5014376" id="Fill-7"></path>
                    <path d="M44.5712804,25.0554917 C44.5712804,23.7266628 43.5259264,22.6635998 42.219234,22.6635998 C40.9125415,22.6635998 39.8671875,23.7266628 39.8671875,25.0554917 C39.8671875,26.3843205 40.9125415,27.4473836 42.219234,27.4473836 L43.421391,27.4473836 C44.7280835,27.4473836 45.7734375,26.3843205 45.7734375,25.0554917 L44.5712804,25.0554917 Z" id="Fill-9"></path>
                    <path d="M10.1401814,11.5014376 L9.02587578,11.5014376 L9.02587578,11.8420306 C9.69445917,12.2393892 10.1401814,13.0341062 10.1401814,13.8855887 L10.1401814,16.2697399 L10.1401814,17.2347534 C10.1401814,18.2565325 9.52731332,19.1647806 8.52443824,19.5053736 L6.85297976,20.0730286 C2.78576413,21.3786352 0,22.1165867 0,25.3522204 C0,28.5310886 3.28720167,29.0419781 4.45722261,29.0419781 C5.62724354,29.0419781 6.79726448,28.7013851 6.79726448,28.7013851 L6.79726448,27.3957786 C4.7915143,27.3957786 4.90294487,24.6142689 4.90294487,24.6142689 C4.90294487,24.6142689 4.68008374,22.0030557 6.79726448,21.3218697 L8.46872295,20.7542147 C9.08159106,20.5271526 9.63874389,20.2433251 10.0844661,19.8459666 L10.0844661,28.6446196 L14.7645499,28.6446196 L14.7645499,16.2129744 C14.8202652,13.6585267 12.7030844,11.5014376 10.1401814,11.5014376" id="Fill-11"></path>
                    <path d="M60.6710457,8.31224842 L57.156992,11.0951436 L55.6721805,12.287813 L54.6328125,13.1397197 L56.46408,13.1397197 L56.46408,24.2713006 C56.46408,26.8838145 58.3448411,29.0419781 60.6210571,29.0419781 C62.5023132,29.0419781 63.4921875,28.7012155 63.4921875,28.7012155 L63.4921875,27.3949585 C63.2942126,27.4517523 63.0467441,27.5085461 62.7992755,27.5653399 L63.0957428,27.5085461 C61.7104138,27.6789274 60.6210571,26.2590829 60.6210571,24.2713006 L60.6210571,13.1397197 L63.4921875,13.1397197 L63.4921875,11.8334628 L60.6210571,11.8334628 L60.6710457,8.31224842 Z" id="Fill-13"></path>
                    <path d="M20.671875,11.5014376 L20.671875,11.8431364 C21.1829928,12.2417851 21.523738,13.0390824 21.523738,13.8933295 L21.523738,38.6095457 L25.1015625,35.2495071 L25.1015625,11.5014376 L21.523738,11.5014376 L20.671875,11.5014376 Z" id="Fill-15"></path>
                    <path d="M30.0879867,11.5014376 C29.0713371,11.5014376 28.0546875,11.8409319 28.0546875,11.8409319 L28.0546875,13.1423269 C29.7975154,13.1423269 29.7006916,20.2717079 29.7006916,20.2717079 C29.7006916,20.2717079 29.8459273,27.4010889 28.0546875,27.4010889 L28.0546875,28.7024838 C28.0546875,28.7024838 29.0713371,29.0419781 30.0879867,29.0419781 C31.1046363,29.0419781 33.9609375,28.7024838 33.9609375,20.3282903 C33.9609375,11.9540967 31.1046363,11.5014376 30.0879867,11.5014376" id="Fill-17"></path>
                    <path d="M69.3984375,11.5014376 L69.3984375,11.8235779 C69.9091785,12.1994083 70.2503824,12.9510691 70.2503824,13.7564199 L70.2503824,27.4473836 L73.828125,27.4473836 L73.828125,11.5014376 L70.2503824,11.5014376 L69.3984375,11.5014376 Z" id="Fill-19"></path>
                    <path d="M113.695312,11.5014376 L113.695312,11.8235779 C114.206053,12.1994083 114.547257,12.9510691 114.547257,13.7564199 L114.547257,27.4473836 L118.125,27.4473836 L118.125,11.5014376 L114.547257,11.5014376 L113.695312,11.5014376 Z" id="Fill-21"></path>
                    <path d="M42.3649392,14.5197774 C42.3649392,13.0960322 43.821961,11.8431364 44.7065814,11.8431364 L44.7065814,11.5014376 C44.7065814,11.5014376 39.8671875,11.8431364 39.8671875,16.7977697 C39.8671875,23.1191982 48.6093184,21.1829048 48.6093184,25.6249897 C48.6093184,27.7321326 47.5685885,28.7002793 46.6319316,28.7002793 L46.6319316,29.0419781 C49.7020847,29.0419781 51.6794715,26.137538 51.6794715,23.6317465 C51.731508,16.9116693 42.3649392,18.7910129 42.3649392,14.5197774" id="Fill-23"></path>
                    <path d="M82.6875,20.3282903 C82.6875,27.7971656 86.9956737,29.0419781 88.59375,29.0419781 L88.59375,27.7405832 C86.9477459,27.7405832 86.9477459,21.6296852 86.9477459,20.2717079 C86.9477459,18.9137305 86.9477459,12.8028326 88.59375,12.8028326 L88.59375,11.5014376 C86.9477459,11.55802 82.6875,12.8594149 82.6875,20.3282903" id="Fill-25"></path>
                    <path d="M93.0234375,11.5014376 L93.0234375,12.8028326 C94.6694416,12.8028326 94.6694416,18.9137305 94.6694416,20.2717079 C94.6694416,21.6296852 94.6694416,27.7405832 93.0234375,27.7405832 L93.0234375,29.0419781 C94.6694416,29.0419781 98.9296875,27.7405832 98.9296875,20.3282903 C98.9296875,12.8028326 94.6694416,11.5014376 93.0234375,11.5014376" id="Fill-27"></path>
                    <path d="M63.6398437,28.4041403 C64.0828125,28.4041403 64.378125,28.2430863 64.8210937,28.0852214 L63.6398437,28.4041403 Z" id="Fill-29"></path>
                    <path d="M117.249516,5.12305923 C118.556209,5.12305923 119.601562,4.05999617 119.601562,2.73116734 C119.601562,1.40233851 118.556209,0.339275446 117.249516,0.339275446 L116.047359,0.339275446 C114.740666,0.339275446 113.695312,1.40233851 113.695312,2.73116734 L114.89747,2.73116734 C114.89747,4.00684301 115.942824,5.12305923 117.249516,5.12305923" id="Fill-31"></path>
                    <path d="M104.412368,10.8813175 L101.882812,10.8813175 L101.882812,12.1642115 L104.412368,12.1642115 L104.412368,27.4473836 L109.030003,27.4473836 L109.030003,12.1642115 L112.21875,12.1642115 L112.21875,10.8813175 L109.030003,10.8813175 L109.030003,3.90906746 C109.030003,2.12417145 110.459991,0.673943447 112.21875,0.673943447 L112.21875,0.339275446 C109.030003,0.339275446 104.412368,1.62216945 104.412368,10.8813175" id="Fill-33"></path>
                </g>
            </g>
        </g>
    </g>
</svg>