<?xml version="1.0" encoding="utf-8"?>
<!-- Generator: Adobe Illustrator 18.0.0, SVG Export Plug-In . SVG Version: 6.00 Build 0)  -->
<!DOCTYPE svg PUBLIC "-//W3C//DTD SVG 1.1//EN" "http://www.w3.org/Graphics/SVG/1.1/DTD/svg11.dtd">
<svg version="1.1" id="Layer_1" xmlns="http://www.w3.org/2000/svg" xmlns:xlink="http://www.w3.org/1999/xlink" x="0px" y="0px"
	 viewBox="0 0 223.1 66.5" enable-background="new 0 0 223.1 66.5" xml:space="preserve">
<g>
	<path fill="#444446" d="M6.9,27.4c2.5,0,4.5-2,4.5-4.5h2.3c0-2.5-2-4.5-4.5-4.5H6.9c-2.5,0-4.5,2-4.5,4.5S4.4,27.4,6.9,27.4z"/>
	<path fill="#444446" d="M90.2,27.4c2.5,0,4.5-2,4.5-4.5s-2-4.5-4.5-4.5H88c-2.5,0-4.5,2-4.5,4.5h2.3C85.7,25.4,87.7,27.4,90.2,27.4
		z"/>
	<path fill="#444446" d="M67.4,0c-2.5,0-4.5,2-4.5,4.5s2,4.5,4.5,4.5v2.3c2.5,0,4.5-2,4.5-4.5V4.5C71.9,2,69.9,0,67.4,0z"/>
	<path fill="#444446" d="M147,18.3h-2.3c-2.5,0-4.5,2-4.5,4.5h2.3c0,2.5,2,4.5,4.5,4.5s4.5-2,4.5-4.5S149.5,18.3,147,18.3z"/>
	<path fill="#444446" d="M81.1,44.7c0-2.5-2-4.5-4.5-4.5c-2.5,0-4.5,2-4.5,4.5c0,2.5,2,4.5,4.5,4.5h2.3c2.5,0,4.5-2,4.5-4.5
		L81.1,44.7L81.1,44.7z"/>
	<path fill="#444446" d="M18.2,18.3h-2v0.6l0,0c1.2,0.7,2,2.1,2,3.6v4.2h0v1.7l0,0c0,1.8-1.1,3.4-2.9,4l-3,1C5,35.7,0,37,0,42.7
		c0,5.6,5.9,6.5,8,6.5s4.2-0.6,4.2-0.6v-2.3c-3.6,0-3.4-4.9-3.4-4.9s-0.4-4.6,3.4-5.8l3-1c1.1-0.4,2.1-0.9,2.9-1.6v15.5l0,0v0h8.4
		l0-21.9C26.6,22.1,22.8,18.3,18.2,18.3z"/>
	<path fill="#444446" d="M113.2,12.7l-7.1,4.9v0l-3,2.1h0l-2.1,1.5h3.7l0,19.6c0,4.6,3.8,8.4,8.4,8.4c3.8,0,5.8-0.6,5.8-0.6v-2.3
		c-0.4,0.1-0.9,0.2-1.4,0.3l0.6-0.1c-2.8,0.3-5-2.2-5-5.7h0l0-19.6h5.8v-2.3h-5.8L113.2,12.7z"/>
	<path fill="#444446" d="M34.3,18.9v0.6l0,0c1.2,0.7,2,2.1,2,3.6v43.4l8.4-5.9V18.9h-8.4H34.3z"/>
	<path fill="#444446" d="M55,18.3c-2.1,0-4.2,0.6-4.2,0.6v2.3c3.6,0,3.4,12.6,3.4,12.6s0.3,12.6-3.4,12.6v2.3c0,0,2.1,0.6,4.2,0.6
		c2.1,0,8-0.6,8-15.4S57.1,18.3,55,18.3z"/>
	<path fill="#444446" d="M126.4,18.9v0.6l0,0c1.2,0.7,2,2.1,2,3.6v25.5h8.4V18.9h-8.4H126.4z"/>
	<path fill="#444446" d="M212.4,18.9l0,0.6c1.2,0.7,2,2.1,2,3.6v25.5h8.4V18.9h-8.4H212.4z"/>
	<path fill="#444446" d="M77.4,23.7c0-2.5,2.8-4.7,4.5-4.7v-0.6c0,0-9.3,0.6-9.3,9.3c0,11.1,16.8,7.7,16.8,15.5c0,3.7-2,5.4-3.8,5.4
		v0.6c5.9,0,9.7-5.1,9.7-9.5C95.4,27.9,77.4,31.2,77.4,23.7z"/>
	<path fill="#444446" d="M154.2,33.8c0,13.2,8.9,15.4,12.2,15.4v-2.3c-3.4,0-3.4-10.8-3.4-13.2s0-13.2,3.4-13.2v-2.3
		C163,18.3,154.2,20.6,154.2,33.8z"/>
	<path fill="#444446" d="M172.6,18.3v2.3c3.4,0,3.4,10.8,3.4,13.2s0,13.2-3.4,13.2v2.3c3.4,0,12.2-2.3,12.2-15.4
		C184.8,20.6,176,18.3,172.6,18.3z"/>
	<path fill="#444446" d="M118.2,46.5c0.3,0,0.5-0.1,0.8-0.2L118.2,46.5z"/>
	<path fill="#444446" d="M218.6,9.1c2.5,0,4.5-2,4.5-4.5s-2-4.5-4.5-4.5h-2.3c-2.5,0-4.5,2-4.5,4.5h2.3C214.1,7,216.1,9.1,218.6,9.1
		z"/>
	<path fill="#444446" d="M194.9,18.9h-4.6v2.3h4.6v27.4h8.4V21.2h5.8v-2.3h-5.8V6.4c0-3.2,2.6-5.8,5.8-5.8V0
		C203.3,0,194.9,2.3,194.9,18.9z"/>
</g>
</svg>
