<?xml version="1.0" encoding="UTF-8"?>
<svg width="40px" height="44px" viewBox="0 0 40 44" version="1.1" xmlns="http://www.w3.org/2000/svg" xmlns:xlink="http://www.w3.org/1999/xlink">
    <!-- Generator: Sketch 54.1 (76490) - https://sketchapp.com -->
    <title>Group 10</title>
    <desc>Created with Sketch.</desc>
    <defs>
        <polygon id="path-1" points="0 0.0808910758 39.7921686 0.0808910758 39.7921686 42.9755501 0 42.9755501"></polygon>
    </defs>
    <g id="Page-1" stroke="none" stroke-width="1" fill="none" fill-rule="evenodd">
        <g id="HOME-1-FINAL" transform="translate(-878.000000, -2097.000000)">
            <g id="Group-14" transform="translate(1.000000, 1598.000000)">
                <g id="Group-4" transform="translate(0.000000, 281.728606)">
                    <g id="Group-10" transform="translate(877.078125, 217.572127)">
                        <g id="Group-3" transform="translate(0.000000, 0.488998)">
                            <mask id="mask-2" fill="white">
                                <use xlink:href="#path-1"></use>
                            </mask>
                            <g id="Clip-2"></g>
                            <path d="M39.7921686,21.5282322 C39.7921686,33.3733104 30.8842099,42.9755732 19.8960843,42.9755732 C8.90774433,42.9755732 0,33.3733104 0,21.5282322 C0,9.68315391 8.90774433,0.0808910758 19.8960843,0.0808910758 C30.8842099,0.0808910758 39.7921686,9.68315391 39.7921686,21.5282322" id="Fill-1" fill="#4C4A88" mask="url(#mask-2)"></path>
                        </g>
                        <path d="M10.3997173,32.3065102 C10.4538462,32.2940268 10.4865025,32.2877851 10.5187115,32.2786626 C11.7424278,31.9348878 12.9665915,31.5923133 14.1891895,31.2439773 C14.2885004,31.2158895 14.3634309,31.2305336 14.4484268,31.2850286 C14.6870861,31.4384309 14.9257455,31.5932736 15.1729044,31.7305914 C17.0768111,32.7868827 19.0930018,33.1887535 21.2243842,32.9217999 C22.4009055,32.7743993 23.5181533,32.4147801 24.5781409,31.8513447 C25.7439258,31.2312538 26.7647706,30.4032655 27.6429117,29.371701 C28.6302055,28.2124214 29.3591566,26.8898967 29.8273047,25.4017264 C30.2704014,23.9942183 30.4309988,22.5485397 30.3372797,21.0673312 C30.2462447,19.6269341 29.9038009,18.259277 29.3128562,16.9638798 C28.7458445,15.7220174 27.9844608,14.6357179 27.0407833,13.6939382 C26.3473963,13.0020674 25.5831048,12.4179864 24.740975,11.9553788 C22.8806846,10.9338971 20.9087812,10.552672 18.8324225,10.7929783 C17.5990882,10.9358177 16.4277113,11.310561 15.3236602,11.9145675 C13.6763067,12.815536 12.3347146,14.0910077 11.319909,15.7520257 C10.0420638,17.8437224 9.48847247,20.1421161 9.63721518,22.6378443 C9.68060779,23.3628442 9.79512849,24.0741603 9.96959363,24.7756337 C10.2673027,25.9721237 10.7546867,27.0757079 11.3843269,28.1103932 C11.4158649,28.1624876 11.431522,28.2481912 11.4167595,28.3074876 C11.2378209,29.0288865 11.0512775,29.7481248 10.867418,30.4683234 C10.7126362,31.0740104 10.5589726,31.6804176 10.3997173,32.3065102 M7.3828125,35.5061125 C7.48503117,35.1044817 7.58143435,34.7258973 7.67806119,34.347313 C8.16186643,32.4531907 8.64611901,30.5593085 9.1261218,28.6642259 C9.14155526,28.6034892 9.12992425,28.519226 9.1010704,28.4640107 C8.34281809,27.0204927 7.85364469,25.4785476 7.62259022,23.8412961 C7.51030625,23.042836 7.46713731,22.2386142 7.49330709,21.4322319 C7.55347519,19.5777205 7.9446797,17.8065121 8.68816958,16.1282094 C9.2708384,14.8126466 10.0326695,13.6305607 10.9725445,12.5788307 C12.0117304,11.4159501 13.2056982,10.4823326 14.5553426,9.77941882 C15.7519945,9.15572685 17.0119459,8.7555365 18.3304997,8.56132295 C19.1075405,8.44705145 19.8883839,8.42544549 20.6674378,8.46697694 C22.3335798,8.5560415 23.9216599,8.9927219 25.4263098,9.77413736 C26.5050859,10.3344519 27.4883535,11.045768 28.3738759,11.9100063 C29.4926895,13.0015873 30.4075131,14.2648156 31.1029132,15.7090538 C31.7596179,17.07335 32.1803473,18.5171081 32.373601,20.0374473 C32.4856613,20.9187303 32.5089233,21.8036143 32.4603862,22.6916191 C32.3597332,24.5384483 31.9126104,26.2839696 31.1342275,27.9320241 C30.6222394,29.0166431 29.9800735,30.0057158 29.2153347,30.9038035 C28.126046,32.1826361 26.8558056,33.2000366 25.4030478,33.9543246 C24.2359208,34.5604917 23.0099677,34.9573212 21.7256359,35.1505744 C20.9928824,35.2607648 20.25655,35.3063774 19.518652,35.2734883 C17.80867,35.1971473 16.1742896,34.7787119 14.6271417,33.9845729 C14.4446243,33.8909471 14.2661331,33.7879587 14.082721,33.6962534 C14.03821,33.6741673 13.9771472,33.6626442 13.9310705,33.6756077 C11.817582,34.267611 9.70498817,34.8627351 7.59217066,35.457379 C7.5290948,35.4751439 7.46422956,35.4871472 7.3828125,35.5061125" id="Fill-4" fill="#FEFEFE"></path>
                        <path d="M16.4553075,16.1247185 C16.1875522,16.105766 15.9148308,16.1024214 15.6882527,16.2778995 C15.5194054,16.4085604 15.3664911,16.5690994 15.2251643,16.7347667 C14.6501318,17.4081387 14.3997578,18.2181917 14.4003786,19.1216696 C14.4007924,19.6224621 14.5090119,20.1040791 14.6722723,20.5720949 C14.8992643,21.2227238 15.2384072,21.8033398 15.6025875,22.3739222 C16.1865176,23.2883256 16.826937,24.1483242 17.5706098,24.9175736 C18.0846007,25.4489131 18.639148,25.9240639 19.2421148,26.3347762 C20.0751773,26.902014 20.9922496,27.2560917 21.9252548,27.5684739 C22.4967697,27.7600058 23.074906,27.9004775 23.6838734,27.8512009 C24.4796902,27.7867623 25.1281795,27.4003539 25.6593448,26.7945421 C26.081256,26.313371 26.1350554,25.6808027 26.1468499,25.0497953 C26.1501606,24.8749861 26.0752553,24.7579264 25.9297901,24.6814474 C25.533744,24.4729697 25.1416294,24.2553502 24.7439279,24.050217 C24.3464333,23.8453068 23.945628,23.6477546 23.5429605,23.4548849 C23.4560538,23.4131893 23.3554904,23.3884395 23.2603069,23.3855409 C23.1102894,23.3808585 23.0165543,23.491675 22.9281992,23.6107415 C22.6134729,24.0337172 22.2964705,24.4544631 21.9761573,24.8720875 C21.8573849,25.0268293 21.7009529,25.0535858 21.5300364,24.983127 C21.4536827,24.9514651 21.3804328,24.9113304 21.3046998,24.8778848 C20.347278,24.4533483 19.4939372,23.8582391 18.7651627,23.0642399 C18.2772438,22.5329004 17.8623679,21.9389061 17.504809,21.2983109 C17.3309957,20.9868206 17.3531362,20.8682001 17.5830251,20.5984054 C17.8540911,20.280226 18.1301232,19.9647223 18.2993843,19.5611451 C18.375945,19.378309 18.3800834,19.2079593 18.3089027,19.026907 C18.182888,18.705606 18.0616325,18.3822983 17.9362386,18.0607743 C17.7398709,17.5573061 17.5472278,17.0520542 17.3429971,16.5523766 C17.2227762,16.258501 17.0061303,16.1097795 16.7011293,16.1242726 C16.6193956,16.1280631 16.5372481,16.1247185 16.4553075,16.1247185 M11.0631624,31.6769346 C11.2104899,31.0954266 11.3526444,30.5322023 11.4958334,29.9696468 C11.6659222,29.3007343 11.838494,28.6327137 12.0040306,27.9626863 C12.0176873,27.9076125 12.0032029,27.8280119 11.9740271,27.7796273 C11.3915454,26.8186229 10.9406654,25.793626 10.665254,24.6823393 C10.5038559,24.0308185 10.3979125,23.3701559 10.3577699,22.696784 C10.2201677,20.3787792 10.7322963,18.2440563 11.9144339,16.3013114 C12.8532329,14.7585762 14.0943429,13.5739321 15.6183135,12.7371225 C16.6396738,12.1761279 17.7233173,11.8280704 18.8642777,11.6954028 C20.7851221,11.472209 22.6093345,11.8262867 24.3302935,12.7750276 C25.1093498,13.2046924 25.8163976,13.7471804 26.4578516,14.3897824 C27.3308498,15.264497 28.0352077,16.2734401 28.5597516,17.4268682 C29.1064359,18.6300189 29.4232314,19.9002837 29.5074481,21.2381088 C29.5941479,22.6138388 29.4455788,23.9565692 29.035669,25.2638473 C28.6025841,26.6460435 27.9282297,27.8743899 27.014882,28.9511161 C26.2025115,29.9092217 25.2581257,30.6782482 24.1796553,31.2541819 C23.1990583,31.7774944 22.1654897,32.1115047 21.0768802,32.2484088 C19.1053403,32.4963524 17.2401575,32.1230992 15.478849,31.1420275 C15.2502017,31.0144882 15.0294173,30.870672 14.808633,30.7281936 C14.7300032,30.6775793 14.6606847,30.663978 14.568812,30.6900656 C13.4377837,31.0135963 12.305307,31.3317757 11.1732442,31.6510699 C11.1434476,31.6595428 11.1132372,31.6653401 11.0631624,31.6769346" id="Fill-6" fill="#4C4A88"></path>
                        <path d="M15.355525,16.4153537 C15.4379254,16.4153537 15.5205339,16.4189797 15.6027263,16.4148703 C15.909439,16.3991576 16.1273007,16.5603939 16.2481963,16.8789987 C16.4535731,17.4207235 16.6472974,17.9684917 16.8447671,18.514326 C16.9708647,18.8629058 17.0928007,19.2134194 17.2195226,19.5617575 C17.2911028,19.7580451 17.2869411,19.9427295 17.2099508,20.140951 C17.0397398,20.5784887 16.7621586,20.9205417 16.4895713,21.2654954 C16.2583923,21.557993 16.2361276,21.6865953 16.4109163,22.024297 C16.7704819,22.7187975 17.1876861,23.3627756 17.6783432,23.9388266 C18.4112076,24.7996397 19.2693374,25.4448266 20.2321323,25.9050872 C20.3082903,25.9413472 20.3819512,25.9848593 20.4587335,26.0191854 C20.6306091,26.0955732 20.787919,26.0665652 20.907358,25.8988021 C21.2294688,25.4460352 21.5482503,24.989884 21.8647428,24.5313155 C21.9535938,24.4022298 22.0478549,24.2820882 22.1987143,24.2871646 C22.294432,24.2903072 22.3955598,24.3171396 22.4829542,24.3623438 C22.8878815,24.5714433 23.2909362,24.7856192 23.6906615,25.0077723 C24.0905949,25.2301672 24.4849101,25.4660991 24.8831788,25.69212 C25.0294604,25.7750346 25.104786,25.9019447 25.1014567,26.0914638 C25.0895961,26.7755697 25.0354948,27.4613677 24.6112158,27.9830287 C24.0770696,28.6398187 23.4249409,29.0587429 22.6246579,29.1286039 C22.0122729,29.182027 21.4308921,29.0297349 20.8561699,28.8220858 C19.9179286,28.4834171 18.9957097,28.0995443 18.1579719,27.4845741 C17.5516213,27.039301 16.9939618,26.5241668 16.4770864,25.9481158 C15.7292401,25.1141351 15.0852266,24.1817688 14.4980195,23.1904196 C14.1317953,22.5718235 13.7907491,21.9423493 13.5624833,21.2369709 C13.3983067,20.7295722 13.2894798,20.2074277 13.2890637,19.6644942 C13.2884394,18.6849899 13.5402185,17.806772 14.1184781,17.0767367 C14.260598,16.8971287 14.4143706,16.7230805 14.5841654,16.5814247 C14.8120151,16.3911804 15.086267,16.3948064 15.355525,16.4153537" id="Fill-8" fill="#FEFEFE"></path>
                    </g>
                </g>
            </g>
        </g>
    </g>
</svg>